PathFileType	4	(X/Y/Z)	C:\Users\WrightLab\Desktop\Jo\P1_boxCal32.trc
DataRate	CameraRate	NumFrames	NumMarkers	Units	OrigDataRate	OrigDataStartFrame	OrigNumFrames
100.00	100.00	       21	19	mm	100.00	645	       737
Frame#	Time	Headset_Front			Headset_Back			Headset_Left			Headset_Right			Left_Shoulder			Right_Shoulder			Sternum			C7			Left Elbow			Right Elbow			Left Wrist			Right Wrist			Left ASIS			Right ASIS			S2			Left Knee			Right Knee			Left Ankle			Right Ankle			
		X1	Y1	Z1	X2	Y2	Z2	X3	Y3	Z3	X4	Y4	Z4	X5	Y5	Z5	X6	Y6	Z6	X7	Y7	Z7	X8	Y8	Z8	X9	Y9	Z9	X10	Y10	Z10	X11	Y11	Z11	X12	Y12	Z12	X13	Y13	Z13	X14	Y14	Z14	X15	Y15	Z15	X16	Y16	Z16	X17	Y17	Z17	X18	Y18	Z18	X19	Y19	Z19	

645	6.440																												-467.61060	980.75085	-1135.62964				-352.27402	749.76361	-1119.91980				-305.20834	859.81110	-1341.73193							-369.63940	414.38254	-1290.09766							
646	6.450																												-466.42456	981.32806	-1136.90527				-345.37735	753.48865	-1122.01306				-305.04800	860.71893	-1340.08142							-371.14450	414.36597	-1287.81799							
647	6.460																												-465.62558	981.00867	-1141.45996				-340.38974	754.01941	-1131.76416				-301.51205	864.91711	-1341.83325							-375.81314	411.98599	-1292.09912							
648	6.470																												-465.30505	980.68353	-1143.82300				-334.93668	756.09247	-1138.95068				-305.75461	862.28131	-1335.39856							-377.20871	412.95151	-1289.14453							
649	6.480																												-464.91690	981.26080	-1144.30591				-328.93506	758.29950	-1142.10278				-305.53339	862.75494	-1333.99011							-378.51523	412.78677	-1289.69800							
650	6.490																												-464.85052	981.79315	-1146.71997				-325.14447	759.52429	-1148.90369				-305.48929	863.12561	-1333.27039							-380.77933	413.33850	-1290.16089							
651	6.500																												-465.14600	982.31049	-1146.99585				-320.62201	761.99371	-1153.72729				-306.19662	862.83234	-1331.65759							-381.21753	413.34891	-1291.37805							
652	6.510																												-465.93289	981.57489	-1150.49841				-317.32434	764.03363	-1159.33264				-306.84625	862.45038	-1330.01465							-382.34348	414.31171	-1291.48645							
653	6.520																												-468.03912	980.88586	-1154.56665				-313.84204	765.36945	-1164.31348				-306.31500	862.45459	-1328.43433							-383.52420	415.11261	-1292.62366							
654	6.530																												-470.13638	980.52094	-1157.26855				-311.98126	765.95221	-1170.62024				-306.24240	861.31921	-1327.47229							-385.74289	416.40891	-1293.73767							
655	6.540																												-472.31332	981.01666	-1161.56116				-309.49744	768.44763	-1174.90369				-306.89920	861.32709	-1325.93225							-387.64331	416.79919	-1294.02966							
656	6.550																												-474.81647	980.37903	-1164.39221				-308.32376	770.97198	-1178.53992				-306.75125	860.92847	-1326.12866							-388.39511	416.82529	-1294.39734							
657	6.560																												-478.06604	980.38397	-1167.20850				-308.00388	772.33765	-1184.98889				-308.21011	860.58356	-1323.10315							-389.13379	417.32031	-1294.56580							
658	6.570																												-483.17456	980.61639	-1174.17883				-307.38547	775.66705	-1188.66394				-308.06287	859.58307	-1320.23315							-390.34723	417.91443	-1296.44568							
659	6.580																												-488.08539	980.17487	-1178.15430				-308.91428	777.13837	-1194.00854				-307.26926	859.40399	-1319.92432							-392.59973	416.98645	-1298.69421							
660	6.590																												-492.40964	980.69574	-1183.09485				-310.93887	779.84326	-1199.22705				-307.22189	859.52869	-1319.58667							-394.49332	418.21359	-1298.91223							
661	6.600																												-498.19922	982.20233	-1187.62830				-313.27948	781.52826	-1201.58948				-307.40231	860.19824	-1317.31262							-395.00247	420.30579	-1300.40808							
662	6.610																												-504.50055	982.48358	-1194.98877				-317.56345	783.27960	-1207.63196				-307.42233	860.37970	-1317.08264							-395.64304	421.29117	-1303.03296							
663	6.620																												-511.34415	981.86035	-1201.35608				-322.70602	783.72443	-1212.88794				-307.12820	860.80945	-1315.53418							-396.67960	421.29303	-1304.16309							
664	6.630																												-517.89276	982.80316	-1208.96570				-326.20898	785.70514	-1216.21301				-306.81775	861.12085	-1314.12622							-398.64172	422.12845	-1307.79822							
665	6.640																												-524.04779	982.80396	-1215.28906				-331.84067	785.94934	-1220.69470				-306.63260	862.28461	-1312.77551							-400.09680	422.62759	-1308.83374							
